Coordinates
version=1
nRows=5
nColumns=40
inDegrees=yes

Units are S.I. units (second, meters, Newtons, ...)
Angles are in degrees.

endheader
time	pelvis_tilt	pelvis_list	pelvis_rotation	pelvis_tx	pelvis_ty	pelvis_tz	hip_flexion_r	hip_adduction_r	hip_rotation_r	knee_angle_r	knee_angle_r_beta	ankle_angle_r	subtalar_angle_r	mtp_angle_r	hip_flexion_l	hip_adduction_l	hip_rotation_l	knee_angle_l	knee_angle_l_beta	ankle_angle_l	subtalar_angle_l	mtp_angle_l	lumbar_extension	lumbar_bending	lumbar_rotation	arm_flex_r	arm_add_r	arm_rot_r	elbow_flex_r	pro_sup_r	wrist_flex_r	wrist_dev_r	arm_flex_l	arm_add_l	arm_rot_l	elbow_flex_l	pro_sup_l	wrist_flex_l	wrist_dev_l
     14.00500000	     -2.86503213	     -7.28850779	      4.92742748	      1.07122494	      0.91768083	      0.49535660	     -4.01315070	      6.43503934	    -18.02580473	      7.78654384	      7.78654384	     17.26133625	      8.08249050	     -6.01372331	     33.32618751	     -9.98148268	     -4.94186242	     16.65813384	     16.65813384	      4.95354368	     -6.87300045	      8.21054896	     -9.23433400	      8.73717028	      4.10128798	     46.58810051	    -13.25402263	     -1.92886657	     92.87696872	     44.43325597	      0.00000000	      0.00000000	    -20.11082693	     -7.65970152	      7.06516804	     24.13210220	     45.11163610	      0.00000000	      0.00000000
     14.01621429	     -3.13536091	     -7.13594888	      4.71049355	      1.07203534	      0.91614845	      0.49368654	     -4.44094076	      6.14556693	    -17.81900852	      7.77843655	      7.77843655	     17.59036214	      8.14389130	     -6.00582410	     33.19288984	     -9.78232004	     -5.66421804	     17.40430457	     17.40430457	      4.45553470	     -7.80221919	      8.33154172	     -8.83207636	      8.44363769	      4.20839419	     47.67454843	    -13.24138397	     -1.98499669	     93.64968225	     44.41709488	      0.00000000	      0.00000000	    -20.85716816	     -7.65790869	      7.09391078	     23.90128940	     45.09370041	      0.00000000	      0.00000000
     14.02742857	     -3.27757714	     -7.11189935	      4.63655941	      1.07281323	      0.91438198	      0.49172018	     -4.80284114	      5.94397365	    -17.73656173	      8.17049892	      8.17049892	     18.22964393	      8.13652608	     -5.68791669	     33.27085365	     -9.53676660	     -5.28797052	     18.68498595	     18.68498595	      3.69671599	    -10.09816863	      8.36567797	     -8.79488107	      8.42551925	      3.71345855	     48.77669165	    -12.67453192	     -1.54216580	     96.53243285	     44.32563001	      0.00000000	      0.00000000	    -21.62351499	     -7.42967705	      7.17628496	     24.05372571	     45.06608577	      0.00000000	      0.00000000
     14.03864286	     -3.59676584	     -6.85004314	      4.29724921	      1.07380783	      0.91287303	      0.48994923	     -5.16359629	      5.48600337	    -17.44283988	      8.21677466	      8.21677466	     18.56178028	      8.22862537	     -5.55606247	     33.16172136	     -9.29820066	     -5.77140453	     19.47549685	     19.47549685	      2.96380215	    -11.04088019	      8.49791834	     -8.39685817	      7.98357414	      3.79729041	     49.53305986	    -12.74755034	     -1.52257690	     97.49879232	     44.30050892	      0.00000000	      0.00000000	    -22.22513671	     -7.40019738	      7.17429096	     23.98981888	     45.05580422	      0.00000000	      0.00000000
     14.04985714	     -3.78968218	     -6.81709250	      4.19482799	      1.07464184	      0.91121939	      0.48785698	     -5.28575418	      5.18914390	    -17.31926277	      8.99960176	      8.99960176	     19.33478289	      8.08732137	     -4.81884405	     33.25559125	     -9.01248567	     -4.94716096	     20.58612091	     20.58612091	      1.93667638	    -13.38085331	      8.34598989	     -8.32698369	      7.94689914	      3.57069724	     49.95635865	    -12.68179288	     -0.98867415	    101.19763709	     44.18222592	      0.00000000	      0.00000000	    -22.70544386	     -7.25718260	      7.12486430	     24.52719108	     45.05744853	      0.00000000	      0.00000000
